<?xml version="1.0" standalone="no"?>
<!DOCTYPE svg PUBLIC "-//W3C//DTD SVG 20010904//EN"
 "http://www.w3.org/TR/2001/REC-SVG-20010904/DTD/svg10.dtd">
<svg version="1.0" xmlns="http://www.w3.org/2000/svg"
 width="1254.000000pt" height="1254.000000pt" viewBox="0 0 1254.000000 1254.000000"
 preserveAspectRatio="xMidYMid meet">

<g transform="translate(0.000000,1254.000000) scale(0.100000,-0.100000)"
fill="#000000" stroke="none">
<path d="M0 6270 l0 -6270 6270 0 6270 0 0 6270 0 6270 -6270 0 -6270 0 0
-6270z m6484 3569 c67 -40 272 -161 456 -269 357 -211 371 -222 337 -273 -8
-13 -79 -64 -158 -114 -79 -50 -254 -160 -389 -245 -546 -345 -857 -543 -1518
-965 -227 -146 -428 -271 -447 -279 -21 -9 -46 -12 -62 -8 -15 4 -119 64 -230
133 -112 69 -311 193 -443 275 -132 81 -249 160 -260 173 -24 31 -26 85 -4
121 10 17 118 91 277 191 1232 774 2030 1270 2120 1318 90 47 166 34 321 -58z
m1364 -821 c667 -409 912 -565 945 -599 35 -38 38 -101 4 -140 -12 -15 -263
-180 -557 -367 -294 -186 -674 -428 -845 -537 -785 -502 -1014 -644 -1055 -655
-53 -14 -108 0 -183 46 -34 21 -251 155 -482 299 -231 144 -459 286 -507 315
-48 29 -94 61 -103 70 -25 28 -30 85 -11 115 20 30 -9 11 776 512 1394 889
1721 1093 1748 1093 13 0 134 -68 270 -152z m1178 -1053 c49 -34 54 -64 54
-347 0 -144 -4 -268 -8 -274 -4 -6 -153 -106 -332 -221 -179 -116 -395 -256
-480 -311 -85 -56 -216 -140 -290 -188 -74 -48 -310 -203 -525 -343 -228 -149
-400 -255 -414 -256 -21 0 -26 8 -39 54 -26 91 -119 154 -200 135 -89 -22
-136 -74 -149 -165 -7 -48 -12 -55 -46 -75 -21 -12 -56 -27 -78 -34 -65 -22
-68 -13 -70 185 -4 258 -3 259 303 455 123 79 529 342 903 583 714 462 1179
761 1236 796 40 24 105 27 135 6z m-5119 -155 c1122 -692 2081 -1303 2132
-1359 18 -20 45 -61 60 -91 26 -54 26 -58 29 -323 l3 -267 -44 -44 c-45 -43
-67 -92 -67 -146 1 -41 36 -106 74 -135 l36 -27 0 -148 0 -148 -35 -26 c-93
-71 -97 -199 -9 -284 l45 -42 -3 -568 c-3 -519 -4 -570 -21 -599 -21 -39 -48
-55 -94 -55 -26 0 -71 25 -206 113 -662 433 -1571 1021 -2012 1299 -82 52
-167 113 -189 135 -21 22 -55 74 -75 115 l-36 75 -3 1293 c-3 1417 -6 1336 56
1375 56 36 91 22 359 -143z m5161 -812 c9 -9 12 -97 12 -334 0 -177 -3 -329
-6 -338 -3 -8 -150 -110 -327 -226 -177 -116 -500 -328 -717 -471 -459 -304
-430 -294 -467 -164 -12 44 -27 105 -33 135 -13 69 -47 120 -96 145 -21 11
-58 38 -81 59 -47 44 -56 82 -25 108 9 8 139 93 287 190 149 97 493 321 765
498 272 177 524 341 560 365 66 44 106 55 128 33z m-2198 -908 c19 -19 20 -33
20 -248 0 -217 -1 -230 -20 -247 -11 -10 -34 -18 -50 -18 -16 0 -39 8 -50 18
-19 17 -20 30 -20 247 0 215 1 229 20 248 11 11 33 20 50 20 17 0 39 -9 50
-20z m2198 -122 c20 -20 17 -606 -4 -683 -19 -75 -56 -138 -108 -187 -43 -40
-569 -388 -598 -396 -17 -4 -67 26 -462 275 -76 49 -144 95 -149 104 -17 28 1
63 50 96 27 17 197 129 378 249 182 119 445 293 585 385 140 93 264 169 276
169 11 0 25 -5 32 -12z m-2673 -364 c93 -31 178 -64 188 -74 37 -35 17 -109
-35 -125 -24 -8 -381 110 -401 133 -41 46 -10 122 50 122 16 0 104 -25 198
-56z m1003 36 c25 -23 30 -76 10 -102 -7 -9 -78 -44 -156 -78 -129 -55 -147
-61 -172 -50 -26 11 -50 46 -50 74 0 32 44 62 170 117 74 32 144 59 156 59 11
0 30 -9 42 -20z m-259 -442 c343 -213 776 -485 941 -593 69 -44 237 -153 373
-240 261 -168 284 -189 272 -245 -13 -61 -26 -65 -442 -130 -117 -19 -213 -36
-213 -40 0 -3 117 -181 260 -395 171 -256 260 -398 260 -414 0 -14 -8 -38 -18
-53 -16 -27 -289 -209 -331 -223 -12 -3 -36 -1 -55 5 -29 9 -64 57 -286 391
-139 209 -256 377 -260 372 -4 -4 -78 -117 -164 -249 -86 -133 -166 -250 -177
-260 -29 -26 -84 -23 -114 6 -26 27 -13 -36 -190 895 -42 220 -114 595 -160
833 -60 310 -81 440 -75 457 11 29 48 55 78 55 14 0 144 -74 301 -172z m-549
-48 c26 -26 26 -81 0 -105 -29 -26 -359 -165 -394 -165 -16 0 -38 7 -48 17
-24 21 -24 85 0 105 14 12 105 54 332 151 49 21 87 20 110 -3z"/>
</g>
</svg>
