<?xml version="1.0" standalone="no"?>
<!DOCTYPE svg PUBLIC "-//W3C//DTD SVG 20010904//EN"
 "http://www.w3.org/TR/2001/REC-SVG-20010904/DTD/svg10.dtd">
<svg version="1.0" xmlns="http://www.w3.org/2000/svg"
 width="1254.000000pt" height="1254.000000pt" viewBox="0 0 1254.000000 1254.000000"
 preserveAspectRatio="xMidYMid meet">

<g transform="translate(0.000000,1254.000000) scale(0.100000,-0.100000)"
fill="#000000" stroke="none">
<path d="M6235 9920 c-48 -7 -67 -17 -232 -119 -473 -289 -493 -302 -1483
-923 -267 -167 -542 -340 -612 -384 -69 -43 -133 -91 -142 -106 -22 -36 -20
-90 4 -121 11 -13 128 -92 260 -173 132 -82 331 -206 443 -275 111 -69 215
-129 230 -133 16 -4 41 -1 62 8 19 8 220 133 447 279 661 422 972 620 1518
965 604 381 570 356 553 408 -7 21 -75 65 -343 224 -184 108 -389 229 -456
269 -126 74 -178 91 -249 81z"/>
<path d="M7220 8959 c-579 -365 -1682 -1067 -2067 -1315 -97 -62 -118 -90
-110 -140 8 -48 22 -62 125 -124 48 -29 276 -171 507 -315 231 -144 448 -278
482 -299 75 -46 130 -60 183 -46 41 11 270 153 1055 655 171 109 551 351 845
537 294 187 545 352 557 367 34 39 31 102 -4 140 -55 57 -1177 751 -1215 751
-14 0 -166 -89 -358 -211z"/>
<path d="M8891 7959 c-57 -35 -522 -334 -1236 -796 -374 -241 -780 -504 -903
-583 -306 -196 -307 -197 -303 -455 2 -198 5 -207 70 -185 22 7 57 22 78 34
34 20 39 27 46 75 9 69 39 117 86 140 55 28 87 32 136 20 59 -15 105 -63 126
-131 14 -45 20 -53 40 -53 14 1 191 110 414 256 215 140 451 295 525 343 74
48 205 132 290 188 85 55 301 195 480 311 179 115 328 215 332 221 4 6 8 130
8 274 0 283 -5 313 -54 347 -30 21 -95 18 -135 -6z"/>
<path d="M3548 7953 c-62 -39 -59 42 -56 -1375 l3 -1293 36 -75 c20 -41 54
-93 75 -115 22 -22 107 -83 189 -135 441 -278 1350 -866 2012 -1299 135 -88
180 -113 206 -113 46 0 73 16 94 55 17 29 18 80 21 599 l3 568 -45 42 c-88 85
-84 213 9 284 l35 26 0 148 0 148 -36 27 c-93 71 -96 194 -7 281 l44 44 -3
267 c-3 265 -3 269 -29 323 -15 30 -42 71 -60 91 -51 56 -1010 667 -2132 1359
-268 165 -303 179 -359 143z"/>
<path d="M8940 6965 c-36 -24 -288 -188 -560 -365 -272 -177 -616 -401 -765
-498 -148 -97 -278 -182 -287 -190 -31 -26 -22 -64 25 -108 23 -21 60 -48 81
-59 49 -25 83 -76 96 -145 6 -30 21 -91 33 -135 37 -130 6 -141 482 173 226
149 548 361 717 472 168 111 309 208 312 216 3 9 6 161 6 338 0 237 -3 325
-12 334 -22 22 -62 11 -128 -33z"/>
<path d="M6770 6090 c-19 -19 -20 -33 -20 -248 0 -217 1 -230 20 -247 11 -10
34 -18 50 -18 16 0 39 8 50 18 19 17 20 30 20 247 0 215 -1 229 -20 248 -11
11 -33 20 -50 20 -17 0 -39 -9 -50 -20z"/>
<path d="M8760 5811 c-140 -92 -403 -266 -585 -385 -181 -120 -351 -232 -378
-249 -26 -18 -50 -43 -54 -56 -11 -44 -37 -25 405 -302 116 -73 199 -119 210
-117 29 8 555 355 598 396 22 21 53 58 67 82 51 88 57 137 57 470 0 321 -1
330 -44 330 -12 0 -136 -76 -276 -169z"/>
<path d="M6150 5640 c-29 -29 -30 -72 -3 -102 20 -23 377 -141 401 -133 52 16
72 90 35 125 -21 21 -346 130 -386 130 -15 0 -36 -9 -47 -20z"/>
<path d="M7200 5601 c-150 -66 -177 -88 -165 -140 5 -23 16 -37 39 -48 32 -15
35 -14 177 47 79 34 150 69 157 78 32 42 -2 122 -52 122 -12 0 -82 -27 -156
-59z"/>
<path d="M6792 5354 c-46 -32 -45 -39 43 -496 46 -238 115 -599 154 -803 39
-203 93 -489 121 -635 44 -231 54 -268 75 -289 30 -30 85 -33 114 -7 11 10 91
127 177 260 86 132 160 245 164 249 4 5 121 -163 260 -372 222 -334 257 -382
286 -391 19 -6 43 -8 55 -5 42 14 315 196 331 223 10 15 18 39 18 53 0 17 -86
154 -256 408 -140 210 -257 388 -260 395 -3 9 53 21 208 46 418 65 430 69 443
131 13 57 -12 77 -405 330 -830 534 -1450 919 -1482 919 -13 0 -34 -7 -46 -16z"/>
<path d="M6480 5153 c-227 -97 -318 -139 -332 -151 -24 -20 -24 -84 0 -105 10
-10 32 -17 48 -17 35 0 365 139 394 165 26 24 26 79 0 105 -23 23 -61 24 -110
3z"/>
</g>
</svg>
